<?xml version="1.0" encoding="UTF-8" standalone="no"?>
<svg
   xmlns:dc="http://purl.org/dc/elements/1.1/"
   xmlns:cc="http://creativecommons.org/ns#"
   xmlns:rdf="http://www.w3.org/1999/02/22-rdf-syntax-ns#"
   xmlns:svg="http://www.w3.org/2000/svg"
   xmlns="http://www.w3.org/2000/svg"
   xmlns:sodipodi="http://sodipodi.sourceforge.net/DTD/sodipodi-0.dtd"
   xmlns:inkscape="http://www.inkscape.org/namespaces/inkscape"
   version="1.1"
   id="Layer_1"
   x="0px"
   y="0px"
   viewBox="0 0 480 480"
   style="enable-background:new 0 0 480 480;"
   xml:space="preserve"
   sodipodi:docname="PiCreatures111pi_plain - Copy.svg"
   inkscape:version="1.0.1 (3bc2e813f5, 2020-09-07)"><metadata
   id="metadata21"><rdf:RDF><cc:Work
       rdf:about=""><dc:format>image/svg+xml</dc:format><dc:type
         rdf:resource="http://purl.org/dc/dcmitype/StillImage" /></cc:Work></rdf:RDF></metadata><defs
   id="defs19" /><sodipodi:namedview
   pagecolor="#ffffff"
   bordercolor="#666666"
   borderopacity="1"
   objecttolerance="10"
   gridtolerance="10"
   guidetolerance="10"
   inkscape:pageopacity="0"
   inkscape:pageshadow="2"
   inkscape:window-width="1366"
   inkscape:window-height="705"
   id="namedview17"
   showgrid="false"
   inkscape:zoom="1.1223524"
   inkscape:cx="357.17789"
   inkscape:cy="125.18462"
   inkscape:window-x="-8"
   inkscape:window-y="-8"
   inkscape:window-maximized="1"
   inkscape:current-layer="Layer_1" />
<style
   type="text/css"
   id="style2">
	.st0{fill:#FFFFFF;}
	.st1{fill:#0C7F99;}
</style>
<path
   class="st0"
   d="M251.6,114.7c0,4.2-1.4,8.2-3.7,11.3l-30.4,0.3c-2.6-3.1-4-7.3-4-11.6c0-10.5,8.5-19,19-19  C243.1,95.6,251.6,104.2,251.6,114.7z"
   id="path4"
   style="fill:#aa0000" />
<path
   class="st0"
   d="M306.6,114.7c0,4.2-1.4,8.2-3.7,11.3l-30.4,0.3c-2.6-3.1-4-7.3-4-11.6c0-10.5,8.5-19,19-19  C298.1,95.6,306.6,104.2,306.6,114.7z"
   id="path6"
   style="fill:#ff8080" />
<path
   d="m 220,111.8 c -1.3,0.1 -2.3,1.1 -2.3,2.4 0,1.3 1.1,2.4 2.4,2.4 1.3,0 2.4,-1.1 2.4,-2.4 0,-1.3 -1.1,-2.4 -2.4,-2.4 0,0 -0.1,0 -0.1,0 l 2.9,-1 c 4.3,0 7.7,3.5 7.7,7.7 0,4.2 -3.5,7.7 -7.7,7.7 -4.2,0 -7.7,-3.5 -7.7,-7.7 0,-4.2 3.5,-7.7 7.7,-7.7"
   id="path8" />
<path
   d="m 275,111.8 c -1.3,0.1 -2.3,1.1 -2.3,2.4 0,1.3 1.1,2.4 2.4,2.4 1.3,0 2.4,-1.1 2.4,-2.4 0,-1.3 -1.1,-2.4 -2.4,-2.4 0,0 -0.1,0 -0.1,0 l 2.9,-1 c 4.3,0 7.7,3.5 7.7,7.7 0,4.2 -3.5,7.7 -7.7,7.7 -4.2,0 -7.7,-3.5 -7.7,-7.7 0,-4.2 3.5,-7.7 7.7,-7.7"
   id="path10" />
<path
   class="st1"
   d="m 228.4,151.1 h 64.4 c -15.4,63.8 -25.1,105.4 -25.1,151 0,8 0,69.5 23.4,69.5 12,0 22.2,-10.8 22.2,-20.5 0,-2.8 0,-4 -4,-12.5 -15.4,-39.3 -15.4,-88.3 -15.4,-92.3 0,-3.4 0,-43.9 12,-95.1 h 63.8 c 7.4,0 22.41987,-54.81192 22.41987,-73.011921 0,-12.5 -24.56726,61.358631 -34.52811,58.737271 C 296.6631,120.89099 201.26049,132.47042 201.26049,132.47042 188.16078,132.5588 154.9,120.5 128.7,148.4 c -14.8,16.5 -33,46.7 -33,50.1 0,3.4 2.8,4.6 6.3,4.6 4,0 4.6,-1.7 7.4,-5.1 29.6,-46.7 59.2,-46.7 73.5,-46.7 h 32.5 c -12.5,42.7 -26.8,92.3 -73.5,192 -4.6,9.1 -4.6,10.3 -4.6,13.7 0,12 10.3,14.8 15.4,14.8 16.5,0 21.1,-14.8 27.9,-38.7 9.1,-29.1 9.1,-30.2 14.8,-53 l 33,-129"
   id="path12"
   sodipodi:nodetypes="ccssscscsssscsscsccssccc" />
<path
   d="m 248.846,142.97612 c 5.8563,0 1.39307,0.13141 13.74454,0 10.96726,-0.13141 9.10815,-0.44642 12.62194,-0.57774 l 11.02095,-3.44227 c -3.93968,0.13141 -15.8971,-0.38124 -21.6375,-0.0523 l -16.49085,0.94503"
   id="path14"
   style="stroke-width:1.18268"
   sodipodi:nodetypes="ccccsc" />
</svg>
