<?xml version="1.0" encoding="UTF-8" standalone="no"?>
<svg
   xmlns:dc="http://purl.org/dc/elements/1.1/"
   xmlns:cc="http://creativecommons.org/ns#"
   xmlns:rdf="http://www.w3.org/1999/02/22-rdf-syntax-ns#"
   xmlns:svg="http://www.w3.org/2000/svg"
   xmlns="http://www.w3.org/2000/svg"
   xmlns:sodipodi="http://sodipodi.sourceforge.net/DTD/sodipodi-0.dtd"
   xmlns:inkscape="http://www.inkscape.org/namespaces/inkscape"
   version="1.1"
   id="Layer_1"
   x="0px"
   y="0px"
   viewBox="0 0 480 480"
   style="enable-background:new 0 0 480 480;"
   xml:space="preserve"
   inkscape:version="1.0.1 (3bc2e813f5, 2020-09-07)"
   sodipodi:docname="PiCreatures_LookAtTeacher.svg"><metadata
     id="metadata21"><rdf:RDF><cc:Work
         rdf:about=""><dc:format>image/svg+xml</dc:format><dc:type
           rdf:resource="http://purl.org/dc/dcmitype/StillImage" /><dc:title /></cc:Work></rdf:RDF></metadata><defs
     id="defs19" /><sodipodi:namedview
     pagecolor="#000000"
     bordercolor="#666666"
     borderopacity="1"
     objecttolerance="10"
     gridtolerance="10"
     guidetolerance="10"
     inkscape:pageopacity="0"
     inkscape:pageshadow="2"
     inkscape:window-width="1366"
     inkscape:window-height="705"
     id="namedview17"
     showgrid="false"
     inkscape:zoom="0.98333331"
     inkscape:cx="234.55642"
     inkscape:cy="213.49495"
     inkscape:window-x="-8"
     inkscape:window-y="-8"
     inkscape:window-maximized="1"
     inkscape:current-layer="Layer_1"
     inkscape:document-rotation="0" /><style
     type="text/css"
     id="style3">
	.st0{fill:#FFFFFF;}
	.st1{fill:#0C7F99;}
</style><path
     class="st0"
     d="M251.6,114.7c0,4.2-1.4,8.2-3.7,11.3l-30.4,0.3c-2.6-3.1-4-7.3-4-11.6c0-10.5,8.5-19,19-19  C243.1,95.6,251.6,104.2,251.6,114.7z"
     id="path5" /><path
     class="st0"
     d="M306.6,114.7c0,4.2-1.4,8.2-3.7,11.3l-30.4,0.3c-2.6-3.1-4-7.3-4-11.6c0-10.5,8.5-19,19-19  C298.1,95.6,306.6,104.2,306.6,114.7z"
     id="path7" /><path
     d="m 240.15727,104.11455 c -1.3,0.1 -2.3,1.1 -2.3,2.4 0,1.3 1.1,2.4 2.4,2.4 1.3,0 2.4,-1.1 2.4,-2.4 0,-1.3 -1.1,-2.4 -2.4,-2.4 0,0 -0.1,0 -0.1,0 l 2.9,-1 c 4.3,0 7.7,3.5 7.7,7.7 0,4.2 -3.5,7.7 -7.7,7.7 -4.2,0 -7.7,-3.5 -7.7,-7.7 0,-4.2 3.5,-7.7 7.7,-7.7"
     id="path9"
     inkscape:connector-curvature="0" /><path
     d="m 295.15728,104.11455 c -1.3,0.1 -2.3,1.1 -2.3,2.4 0,1.3 1.1,2.4 2.4,2.4 1.3,0 2.4,-1.1 2.4,-2.4 0,-1.3 -1.1,-2.4 -2.4,-2.4 0,0 -0.1,0 -0.1,0 l 2.9,-1 c 4.3,0 7.7,3.5 7.7,7.7 0,4.2 -3.5,7.7 -7.7,7.7 -4.2,0 -7.7,-3.5 -7.7,-7.7 0,-4.2 3.5,-7.7 7.7,-7.7"
     id="path11"
     inkscape:connector-curvature="0" /><path
     inkscape:connector-curvature="0"
     d="M 398.18976,132.17834 225.11552,125.0597 c -15.93525,-0.65543 -30.75824,3.41758 -46.13736,10.82234 -41.01099,21.64468 -74.61721,64.93406 -66.07326,136.70329 9.68315,73.47802 44.42857,123.03296 108.79304,123.03296 30.18864,0 54.68131,-13.10073 74.61721,-39.3022 18.2271,-25.63186 25.63187,-56.3901 21.64469,-89.99633 -5.12638,-44.42857 -5.29289,-66.15651 -30.35516,-86.66201 l 5.20699,-14.60402 13.44431,-1.01695 c 9.65557,-0.73036 93.64257,-19.32731 91.93378,-31.85844 z m -120.67131,99.396 c 2.27838,19.3663 1.70879,38.7326 -0.5696,58.6685 -2.84799,18.2271 -8.54396,34.74542 -17.65751,47.84615 -14.80952,22.78388 -26.77106,34.74542 -57.5293,34.74542 -26.77106,0 -46.70696,-36.45421 -51.26374,-70.63004 -2.84798,-19.93589 -2.27838,-39.87179 0.5696,-58.09889 4.55678,-33.03663 22.21429,-64.93407 43.28938,-76.89561 8.54395,-4.55677 19.3663,-6.26556 31.32783,-6.26556 26.77107,0 47.27656,35.88461 51.83334,70.63003 z"
     style="font-style:normal;font-variant:normal;font-weight:normal;font-stretch:normal;font-size:569.597px;line-height:200%;font-family:'TeX Gyre Schola Math';-inkscape-font-specification:'TeX Gyre Schola Math, Normal';text-align:center;writing-mode:lr-tb;text-anchor:middle;fill:#0000ff"
     id="path7461"
     sodipodi:nodetypes="csccsccccsccccscccsc" /><path
     d="m 245.53729,149.1 c 7.93178,0.0452 2.09254,-0.067 13.69254,-0.16699 10.47445,0.29249 4.37506,0.17072 16.27017,-0.033 v 0 c -3.7,0.1 -9.6,-2.9 -15,-2.9 h -14.6"
     id="path15"
     inkscape:connector-curvature="0"
     sodipodi:nodetypes="ccccsc" /></svg>
