<?xml version="1.0" encoding="UTF-8" standalone="no"?>
<svg
   xmlns:dc="http://purl.org/dc/elements/1.1/"
   xmlns:cc="http://creativecommons.org/ns#"
   xmlns:rdf="http://www.w3.org/1999/02/22-rdf-syntax-ns#"
   xmlns:svg="http://www.w3.org/2000/svg"
   xmlns="http://www.w3.org/2000/svg"
   xmlns:sodipodi="http://sodipodi.sourceforge.net/DTD/sodipodi-0.dtd"
   xmlns:inkscape="http://www.inkscape.org/namespaces/inkscape"
   width="210mm"
   height="297mm"
   viewBox="0 0 210 297"
   version="1.1"
   id="svg76"
   inkscape:version="1.0.1 (3bc2e813f5, 2020-09-07)"
   sodipodi:docname="Car.svg">
  <defs
     id="defs70" />
  <sodipodi:namedview
     id="base"
     pagecolor="#ffffff"
     bordercolor="#666666"
     borderopacity="1.0"
     inkscape:pageopacity="0.0"
     inkscape:pageshadow="2"
     inkscape:zoom="0.35"
     inkscape:cx="400"
     inkscape:cy="560"
     inkscape:document-units="mm"
     inkscape:current-layer="layer1"
     inkscape:document-rotation="0"
     showgrid="false"
     inkscape:window-width="1346"
     inkscape:window-height="728"
     inkscape:window-x="4"
     inkscape:window-y="0"
     inkscape:window-maximized="0" />
  <metadata
     id="metadata73">
    <rdf:RDF>
      <cc:Work
         rdf:about="">
        <dc:format>image/svg+xml</dc:format>
        <dc:type
           rdf:resource="http://purl.org/dc/dcmitype/StillImage" />
        <dc:title></dc:title>
      </cc:Work>
    </rdf:RDF>
  </metadata>
  <g
     inkscape:label="Layer 1"
     inkscape:groupmode="layer"
     id="layer1">
    <path
       id="rect78"
       style="fill:#66ff00;stroke-width:0.247141"
       d="m 111.17847,120.19628 c -38.140203,0 -68.84521,4.76678 -68.84521,10.68769 v 76.53769 h 3.011912 a 23.885046,13.578567 0 0 1 -0.201531,-1.76002 23.885046,13.578567 0 0 1 23.884797,-13.57884 23.885046,13.578567 0 0 1 23.885096,13.57884 23.885046,13.578567 0 0 1 -0.201831,1.76002 h 1.672954 v 12.29702 c 5.371603,0.2082 10.994323,0.32009 16.793813,0.32009 h 1.40504 c 4.20891,0 8.32167,-0.0604 12.31646,-0.17236 v -1.7971 a 27.046304,10.78298 0 0 1 -8.73404,-7.93479 27.046304,10.78298 0 0 1 27.04651,-10.78321 27.046304,10.78298 0 0 1 27.04622,10.78321 27.046304,10.78298 0 0 1 -0.54719,2.15813 h 2.09426 v 2.52449 c 6.113,-1.59747 9.62299,-3.46572 9.62299,-5.46607 v -78.4671 c 0,-5.92091 -30.70501,-10.68769 -68.84521,-10.68769 z m 22.05187,9.98434 a 30.91006,32.348942 0 0 1 0.0768,0 30.91006,32.348942 0 0 1 30.9103,32.34875 30.91006,32.348942 0 0 1 -30.9103,32.34906 30.91006,32.348942 0 0 1 -30.9103,-32.34906 30.91006,32.348942 0 0 1 30.83345,-32.34875 z m -60.214624,11.1825 a 19.318787,22.764069 0 0 1 0.01704,0 19.318787,22.764069 0 0 1 19.318937,22.76371 19.318787,22.764069 0 0 1 -19.318937,22.7646 19.318787,22.764069 0 0 1 -19.319237,-22.7646 19.318787,22.764069 0 0 1 19.302193,-22.76371 z" />
  </g>
</svg>
